<?xml version="1.0" encoding="UTF-8"?>
<svg id="_レイヤー_1" data-name="レイヤー 1" xmlns="http://www.w3.org/2000/svg" viewBox="0 0 1350 1068">
  <defs>
    <style>
      .cls-1 {
        fill: #e8f0ff;
        stroke: #FFF;
        stroke-miterlimit: 10;
      }
    </style>
  </defs>
  <path class="cls-1" d="m284.5,743.5v-332h-110v63h-41v269h151Zm0,83v-46h-42v46h42Zm417-123v-103h-22v73.46c-3.72,3.73-5.81,5.82-9.54,9.54h-212.46v20h244Zm-31.54-304c3.73,3.72,5.82,5.81,9.54,9.54v73.46h22v-104h-244v21h212.46Zm250.54,649v-54h-303v54m71-229v-12h16v12h21v-63h-56v63h19Zm232-345v-128h-145v128h145Zm266-343v-4h16v4h15v2h39v-48.22l-39-13.78V28.5h-49v103h18Zm-100-26v28h33V28.5h-50v77h17Zm134,889v-83h74v-170h-37v-138h-188v-33h-75v424h226Z"/>
  <path class="cls-1" d="m1144.5,166.5v-33h-50v33h50Z"/>
  <polyline class="cls-1" points="617.5 1048.5 617.5 994.5 920.5 994.5 920.5 1048.5"/>
  <rect class="cls-1" x="98.5" y="911.5" width="519" height="137"/>
  <rect class="cls-1" x="1069.5" y="474.5" width="188" height="129"/>
  <polygon class="cls-1" points="994.5 385.5 994.5 214.5 1294.5 214.5 1294.5 474.5 1069.5 474.5 1069.5 385.5 994.5 385.5"/>
  <rect class="cls-1" x="775.5" y="474.5" width="145" height="267"/>
  <rect class="cls-1" x="775.5" y="346.5" width="145" height="128"/>
  <rect class="cls-1" x="775.5" y="346.5" width="145" height="128"/>
  <polyline class="cls-1" points="98.5 846.5 133.5 846.5 133.5 864.5 112.5 864.5 112.5 911.5 98.5 911.5 98.5 846.5"/>
  <polygon class="cls-1" points="1256.5 85.28 1217.5 71.5 1217.5 28.5 1294.5 28.5 1294.5 166.5 1217.5 166.5 1217.5 133.5 1256.5 133.5 1256.5 85.28"/>
  <rect class="cls-1" x="322.5" y="28.5" width="598" height="266"/>
  <rect class="cls-1" x="920.5" y="28.5" width="149" height="138"/>
  <rect class="cls-1" x="1168.5" y="28.5" width="49" height="47"/>
  <rect class="cls-1" x="1180.5" y="87.5" width="28" height="40"/>
  <polygon class="cls-1" points="1168.5 131.5 1168.5 75.5 1217.5 75.5 1217.5 131.5 1202.5 131.5 1202.5 127.5 1186.5 127.5 1186.5 131.5 1168.5 131.5"/>
  <polygon class="cls-1" points="1119.5 133.5 1119.5 28.5 1168.5 28.5 1168.5 105.5 1151.5 105.5 1151.5 133.5 1119.5 133.5"/>
  <polygon class="cls-1" points="1069.5 105.5 1069.5 28.5 1119.5 28.5 1119.5 133.5 1086.5 133.5 1086.5 105.5 1069.5 105.5"/>
  <rect class="cls-1" x="174.5" y="28.5" width="148" height="138"/>
  <path class="cls-1" d="m687.33,721.78v-18.28h-4.83l4.83,18.28Zm571.17,237.72v28l36,14v-90h-74v48h38Zm-571.17-237.72l5.84,22.11,3.33,12.61h29v54h50v-404h-74v76h-8v118h8v103h-19l4.83,18.28ZM174.5,131.5v-48.22l-37-13.78v62h37Zm512.83,590.28v-18.28h-4.83l4.83,18.28Z"/>
  <path class="cls-1" d="m284.5,212.5v531h-151v121h-21v47h505v83h303v54h374v-47l-36-14v-28h-38v35h-226v-424h75v-185h-75v-171h300v-48h-77v-35h-15v-4h-16v4h-18v-26h-17v28h-7v33h-50v-33h-8v-28h-17v61h-149v128H322.5v-128h-148v-35h-37v-62l37,13.78V28.5h-76v184h186Zm-42,568,0,46,42-46v46m30-485h165v37h222v28h74v-60h145v395h-145v69h-50v9h-21v-12h-16v12h-19v-116h-196v37h156v124h-315V341.5Z"/>
  <polygon class="cls-1" points="669.5 756.5 669.5 703.5 682.5 703.5 687.33 721.78 693.17 743.89 696.5 756.5 669.5 756.5"/>
  <rect class="cls-1" x="682.5" y="781.5" width="28" height="26"/>
  <polygon class="cls-1" points="669.5 819.5 669.5 756.5 725.5 756.5 725.5 819.5 704.5 819.5 704.5 807.5 688.5 807.5 688.5 819.5 669.5 819.5"/>
  <rect class="cls-1" x="174.5" y="411.5" width="110" height="63"/>
  <polygon class="cls-1" points="132.5 411.5 132.5 231.5 166.5 231.5 166.5 212.5 284.5 212.5 284.5 411.5 132.5 411.5"/>
  <polyline class="cls-1" points="98.5 231.5 98.5 212.5 166.5 212.5 166.5 231.5 98.5 231.5"/>
  <path class="cls-1" d="m457.5,703.5v-20h212.46c3.73-3.72,5.82-5.81,9.54-9.54v-73.46h22v103h-244Z"/>
  <polygon class="cls-1" points="314.5 864.5 314.5 659.5 432.5 683.5 457.5 683.5 457.5 703.5 473.5 703.5 473.5 740.5 629.5 740.5 629.5 864.5 314.5 864.5"/>
  <polygon class="cls-1" points="314.5 421.5 314.5 341.5 479.5 341.5 479.5 378.5 457.5 378.5 457.5 399.5 432.5 399.5 314.5 421.5"/>
  <rect class="cls-1" x="994.5" y="570.5" width="75" height="33"/>
  <rect class="cls-1" x="1094.5" y="133.5" width="50" height="33"/>
  <line class="cls-1" x1="613.04" y1="378.5" x2="613.04" y2="341.5"/>
  <line class="cls-1" x1="775.5" y1="810.5" x2="775.5" y2="874.63"/>
  <g>
    <line class="cls-1" x1="284.5" y1="780.5" x2="284.5" y2="826.5"/>
    <polyline class="cls-1" points="133.5 803.5 211.82 803.5 242 803.5"/>
    <line class="cls-1" x1="284.5" y1="765.49" x2="284.5" y2="780.5"/>
    <line class="cls-1" x1="284.5" y1="826.5" x2="284.5" y2="841.47"/>
    <line class="cls-1" x1="133.5" y1="864.5" x2="284.5" y2="864.5"/>
  </g>
  <g>
    <rect class="cls-1" x="701.5" y="406.5" width="74" height="56"/>
    <line class="cls-1" x1="775.5" y1="413.5" x2="701.5" y2="413.5"/>
    <line class="cls-1" x1="775.5" y1="420.5" x2="701.5" y2="420.5"/>
    <line class="cls-1" x1="775.5" y1="427.5" x2="701.5" y2="427.5"/>
    <line class="cls-1" x1="775.5" y1="434.5" x2="701.5" y2="434.5"/>
    <line class="cls-1" x1="775.5" y1="441.5" x2="701.5" y2="441.5"/>
    <line class="cls-1" x1="775.5" y1="448.5" x2="701.5" y2="448.5"/>
    <line class="cls-1" x1="775.5" y1="455.5" x2="701.5" y2="455.5"/>
  </g>
  <g>
    <rect class="cls-1" x="725.5" y="768.5" width="50" height="42"/>
    <line class="cls-1" x1="775.5" y1="775.5" x2="725.5" y2="775.5"/>
    <line class="cls-1" x1="775.5" y1="782.5" x2="725.5" y2="782.5"/>
    <line class="cls-1" x1="775.5" y1="789.5" x2="725.5" y2="789.5"/>
    <line class="cls-1" x1="775.5" y1="796.5" x2="725.5" y2="796.5"/>
    <line class="cls-1" x1="775.5" y1="803.5" x2="725.5" y2="803.5"/>
  </g>
  <g>
    <polygon class="cls-1" points="682.5 703.5 716.5 703.5 716.5 756.5 696.5 756.5 693.17 743.89 687.33 721.78 682.5 703.5"/>
    <line class="cls-1" x1="687.33" y1="703.5" x2="687.33" y2="721.78"/>
    <line class="cls-1" x1="693.17" y1="703.5" x2="693.17" y2="743.89"/>
    <line class="cls-1" x1="699" y1="756.5" x2="699" y2="703.5"/>
    <line class="cls-1" x1="704.83" y1="756.5" x2="704.83" y2="703.5"/>
    <line class="cls-1" x1="710.67" y1="756.5" x2="710.67" y2="703.5"/>
  </g>
  <g>
    <polygon class="cls-1" points="1217.5 133.5 1217.5 71.5 1256.5 85.28 1256.5 133.5 1217.5 133.5"/>
    <line class="cls-1" x1="1217.5" y1="78.39" x2="1237" y2="78.39"/>
    <line class="cls-1" x1="1217.5" y1="85.28" x2="1256.5" y2="85.28"/>
    <line class="cls-1" x1="1256.5" y1="92.17" x2="1217.5" y2="92.17"/>
    <line class="cls-1" x1="1256.5" y1="99.06" x2="1217.5" y2="99.06"/>
    <line class="cls-1" x1="1256.5" y1="105.94" x2="1217.5" y2="105.94"/>
    <line class="cls-1" x1="1256.5" y1="112.83" x2="1217.5" y2="112.83"/>
    <line class="cls-1" x1="1256.5" y1="119.72" x2="1217.5" y2="119.72"/>
    <line class="cls-1" x1="1256.5" y1="126.61" x2="1217.5" y2="126.61"/>
  </g>
  <g>
    <g>
      <polygon class="cls-1" points="1258.5 987.5 1258.5 945.5 1294.5 945.5 1294.5 1001.5 1258.5 987.5"/>
      <line class="cls-1" x1="1276.5" y1="994.5" x2="1294.5" y2="994.5"/>
      <line class="cls-1" x1="1294.5" y1="987.5" x2="1258.5" y2="987.5"/>
      <line class="cls-1" x1="1294.5" y1="980.5" x2="1258.5" y2="980.5"/>
      <line class="cls-1" x1="1294.5" y1="973.5" x2="1258.5" y2="973.5"/>
      <line class="cls-1" x1="1294.5" y1="966.5" x2="1258.5" y2="966.5"/>
      <line class="cls-1" x1="1294.5" y1="959.5" x2="1258.5" y2="959.5"/>
      <line class="cls-1" x1="1294.5" y1="952.5" x2="1258.5" y2="952.5"/>
    </g>
    <g>
      <rect class="cls-1" x="1220.5" y="945.5" width="38" height="14"/>
      <line class="cls-1" x1="1258.5" y1="959" x2="1258.5" y2="959.5"/>
      <line class="cls-1" x1="1220.5" y1="952.5" x2="1258.5" y2="952.5"/>
    </g>
  </g>
  <g>
    <polygon class="cls-1" points="137.5 131.5 137.5 69.5 174.5 83.28 174.5 131.5 137.5 131.5"/>
    <line class="cls-1" x1="137.5" y1="76.39" x2="156" y2="76.39"/>
    <line class="cls-1" x1="137.5" y1="83.28" x2="174.5" y2="83.28"/>
    <line class="cls-1" x1="174.5" y1="90.17" x2="137.5" y2="90.17"/>
    <line class="cls-1" x1="174.5" y1="97.06" x2="137.5" y2="97.06"/>
    <line class="cls-1" x1="174.5" y1="103.94" x2="137.5" y2="103.94"/>
    <line class="cls-1" x1="174.5" y1="110.83" x2="137.5" y2="110.83"/>
    <line class="cls-1" x1="174.5" y1="117.72" x2="137.5" y2="117.72"/>
    <line class="cls-1" x1="174.5" y1="124.61" x2="137.5" y2="124.61"/>
  </g>
</svg>