<?xml version="1.0" encoding="UTF-8"?>
<svg id="_レイヤー_1" data-name="レイヤー 1" xmlns="http://www.w3.org/2000/svg" viewBox="0 0 2414 1810">
  <defs>
    <style>
      .cls-1 {
        fill: none;
        stroke: #e8f0ff;
        stroke-miterlimit: 10;
        stroke-width: 2px;
      }
    </style>
  </defs>
  <rect class="cls-1" x="177.11" y="46.77" width="2138.65" height="1730.65"/>
  <rect class="cls-1" x="1248.77" y="46.77" width="160.67" height="239.12"/>
  <rect class="cls-1" x="845.57" y="46.77" width="403.2" height="239.12"/>
  <rect class="cls-1" x="577.27" y="46.77" width="268.29" height="239.12"/>
  <rect class="cls-1" x="443.88" y="46.77" width="133.39" height="239.12"/>
  <rect class="cls-1" x="312.01" y="46.77" width="131.87" height="239.12"/>
  <polygon class="cls-1" points="177.11 366.22 177.11 1462.14 450.33 1462.14 450.33 1426.71 505.65 1426.71 505.65 1462.14 778.87 1462.14 778.87 366.22 177.11 366.22"/>
  <rect class="cls-1" x="851.25" y="366.22" width="259.2" height="202.36"/>
  <rect class="cls-1" x="851.25" y="568.58" width="259.2" height="449.05"/>
  <rect class="cls-1" x="851.25" y="1017.63" width="259.2" height="223.96"/>
  <rect class="cls-1" x="1110.45" y="635.65" width="127.33" height="381.98"/>
  <rect class="cls-1" x="1237.78" y="635.65" width="102.32" height="543.41"/>
  <polyline class="cls-1" points="1385.57 366.22 1385.57 635.65 1110.45 635.65 1110.45 366.22"/>
  <rect class="cls-1" x="582.96" y="1539.44" width="131.87" height="237.98"/>
  <rect class="cls-1" x="714.83" y="1539.44" width="537.73" height="237.98"/>
  <rect class="cls-1" x="1252.56" y="1539.44" width="136.42" height="237.98"/>
  <rect class="cls-1" x="1252.56" y="1312.07" width="136.42" height="227.37"/>
  <rect class="cls-1" x="1388.98" y="1312.07" width="264.88" height="465.35"/>
  <polygon class="cls-1" points="552.26 1600.83 431.76 1600.83 431.76 1650.85 402.2 1650.85 402.2 1777.42 582.96 1777.42 582.96 1650.85 552.26 1650.85 552.26 1600.83"/>
  <polygon class="cls-1" points="536.35 1600.83 492.58 1600.83 448.81 1600.83 448.81 1543.23 536.35 1543.23 536.35 1600.83"/>
  <line class="cls-1" x1="492.58" y1="1777.42" x2="492.58" y2="1600.83"/>
  <line class="cls-1" x1="312.52" y1="1543.23" x2="312.52" y2="1777.42"/>
  <polygon class="cls-1" points="381.74 1681.93 330.2 1681.93 331.08 1605.38 382.62 1605.38 381.74 1681.93"/>
  <polygon class="cls-1" points="369.11 1600.83 369.11 1605.38 342.83 1605.38 342.83 1600.83 312.52 1600.83 312.52 1699.61 402.2 1699.61 402.2 1600.83 369.11 1600.83"/>
  <rect class="cls-1" x="1385.57" y="366.22" width="542.27" height="269.43"/>
  <rect class="cls-1" x="1340.09" y="1179.06" width="352.42" height="73.89"/>
  <rect class="cls-1" x="1224.89" y="460.77" width="47.37" height="43.2"/>
  <polygon class="cls-1" points="1262.22 441.63 1262.22 460.77 1233.8 460.77 1233.8 441.63 1197.61 441.63 1197.61 547.36 1299.55 547.36 1299.55 441.63 1262.22 441.63"/>
  <g>
    <rect class="cls-1" x="1110.45" y="454.89" width="87.16" height="70.48"/>
    <line class="cls-1" x1="1110.45" y1="513.63" x2="1197.61" y2="513.63"/>
    <line class="cls-1" x1="1110.45" y1="501.88" x2="1197.61" y2="501.88"/>
    <line class="cls-1" x1="1110.45" y1="490.14" x2="1197.61" y2="490.14"/>
    <line class="cls-1" x1="1110.45" y1="478.39" x2="1197.61" y2="478.39"/>
    <line class="cls-1" x1="1110.45" y1="466.64" x2="1197.61" y2="466.64"/>
  </g>
  <g>
    <rect class="cls-1" x="1299.55" y="454.89" width="86.02" height="70.48"/>
    <line class="cls-1" x1="1299.55" y1="513.63" x2="1385.57" y2="513.63"/>
    <line class="cls-1" x1="1299.55" y1="501.88" x2="1385.57" y2="501.88"/>
    <line class="cls-1" x1="1299.55" y1="490.14" x2="1385.57" y2="490.14"/>
    <line class="cls-1" x1="1299.55" y1="478.39" x2="1385.57" y2="478.39"/>
    <line class="cls-1" x1="1299.55" y1="466.64" x2="1385.57" y2="466.64"/>
  </g>
  <g>
    <rect class="cls-1" x="1213.15" y="547.36" width="69.73" height="88.29"/>
    <line class="cls-1" x1="1271.25" y1="635.65" x2="1271.25" y2="547.36"/>
    <line class="cls-1" x1="1259.63" y1="635.65" x2="1259.63" y2="547.36"/>
    <line class="cls-1" x1="1248.01" y1="635.65" x2="1248.01" y2="547.36"/>
    <line class="cls-1" x1="1236.39" y1="635.65" x2="1236.39" y2="547.36"/>
    <line class="cls-1" x1="1224.77" y1="635.65" x2="1224.77" y2="547.36"/>
  </g>
  <g>
    <rect class="cls-1" x="177.11" y="93.38" width="134.91" height="128.46"/>
    <line class="cls-1" x1="177.11" y1="210.16" x2="312.01" y2="210.16"/>
    <line class="cls-1" x1="177.11" y1="198.49" x2="312.01" y2="198.49"/>
    <line class="cls-1" x1="177.11" y1="186.81" x2="312.01" y2="186.81"/>
    <line class="cls-1" x1="177.11" y1="175.13" x2="312.01" y2="175.13"/>
    <line class="cls-1" x1="177.11" y1="163.45" x2="312.01" y2="163.45"/>
    <line class="cls-1" x1="177.11" y1="151.77" x2="312.01" y2="151.77"/>
    <line class="cls-1" x1="177.11" y1="140.09" x2="312.01" y2="140.09"/>
    <line class="cls-1" x1="177.11" y1="128.41" x2="312.01" y2="128.41"/>
    <line class="cls-1" x1="177.11" y1="116.74" x2="312.01" y2="116.74"/>
    <line class="cls-1" x1="177.11" y1="105.06" x2="312.01" y2="105.06"/>
    <line class="cls-1" x1="244.56" y1="93.38" x2="244.56" y2="221.84"/>
  </g>
  <g>
    <rect class="cls-1" x="177.11" y="1602.35" width="135.41" height="131.49"/>
    <line class="cls-1" x1="312.52" y1="1614.3" x2="177.11" y2="1614.3"/>
    <line class="cls-1" x1="312.52" y1="1626.26" x2="177.11" y2="1626.26"/>
    <line class="cls-1" x1="312.52" y1="1638.21" x2="177.11" y2="1638.21"/>
    <line class="cls-1" x1="312.52" y1="1650.16" x2="177.11" y2="1650.16"/>
    <line class="cls-1" x1="312.52" y1="1662.12" x2="177.11" y2="1662.12"/>
    <line class="cls-1" x1="312.52" y1="1674.07" x2="177.11" y2="1674.07"/>
    <line class="cls-1" x1="312.52" y1="1686.03" x2="177.11" y2="1686.03"/>
    <line class="cls-1" x1="312.52" y1="1697.98" x2="177.11" y2="1697.98"/>
    <line class="cls-1" x1="312.52" y1="1709.93" x2="177.11" y2="1709.93"/>
    <line class="cls-1" x1="312.52" y1="1721.89" x2="177.11" y2="1721.89"/>
    <line class="cls-1" x1="244.81" y1="1733.84" x2="244.81" y2="1602.35"/>
  </g>
  <g>
    <rect class="cls-1" x="2180.85" y="1602.35" width="135.41" height="131.49"/>
    <line class="cls-1" x1="2316.26" y1="1614.3" x2="2180.85" y2="1614.3"/>
    <line class="cls-1" x1="2316.26" y1="1626.26" x2="2180.85" y2="1626.26"/>
    <line class="cls-1" x1="2316.26" y1="1638.21" x2="2180.85" y2="1638.21"/>
    <line class="cls-1" x1="2316.26" y1="1650.16" x2="2180.85" y2="1650.16"/>
    <line class="cls-1" x1="2316.26" y1="1662.12" x2="2180.85" y2="1662.12"/>
    <line class="cls-1" x1="2316.26" y1="1674.07" x2="2180.85" y2="1674.07"/>
    <line class="cls-1" x1="2316.26" y1="1686.03" x2="2180.85" y2="1686.03"/>
    <line class="cls-1" x1="2316.26" y1="1697.98" x2="2180.85" y2="1697.98"/>
    <line class="cls-1" x1="2316.26" y1="1709.93" x2="2180.85" y2="1709.93"/>
    <line class="cls-1" x1="2316.26" y1="1721.89" x2="2180.85" y2="1721.89"/>
    <line class="cls-1" x1="2248.56" y1="1733.84" x2="2248.56" y2="1602.35"/>
  </g>
  <polygon class="cls-1" points="1718.66 1143.82 1340.09 1143.82 1340.09 1179.06 1927.84 1179.06 1927.84 1143.82 1927.84 1106.31 1718.66 1143.82"/>
  <polygon class="cls-1" points="1340.09 635.65 1340.09 670.89 1711.84 670.89 1927.84 710.68 1927.84 670.89 1927.84 635.65 1340.09 635.65"/>
  <rect class="cls-1" x="1515.17" y="366.22" width="278.53" height="101.18"/>
  <rect class="cls-1" x="1423.08" y="1179.06" width="188.72" height="51.16"/>
  <rect class="cls-1" x="1653.86" y="1539.44" width="130.74" height="237.98"/>
  <rect class="cls-1" x="1784.6" y="1539.44" width="269.43" height="237.98"/>
  <rect class="cls-1" x="2054.03" y="1539.44" width="126.19" height="237.98"/>
  <rect class="cls-1" x="1409.44" y="46.77" width="239.12" height="239.12"/>
  <rect class="cls-1" x="1648.56" y="46.77" width="266.78" height="239.12"/>
  <rect class="cls-1" x="1915.34" y="46.77" width="266.02" height="239.12"/>
  <rect class="cls-1" x="2181.36" y="46.77" width="134.4" height="239.12"/>
  <rect class="cls-1" x="2256.39" y="395.78" width="59.37" height="1031.12"/>
  <polygon class="cls-1" points="2286.07 285.88 2286.07 366.22 2256.39 366.22 2256.39 395.78 2315.76 395.78 2315.76 285.88 2286.07 285.88"/>
  <polygon class="cls-1" points="2256.39 1426.89 2256.39 1462.14 2293.91 1462.14 2293.91 1539.44 2315.76 1539.44 2315.76 1426.89 2256.39 1426.89"/>
  <line class="cls-1" x1="2256.39" y1="366.22" x2="1983.55" y2="366.22"/>
  <rect class="cls-1" x="1983.55" y="568.58" width="272.84" height="122.78"/>
  <rect class="cls-1" x="1983.55" y="691.36" width="272.84" height="219.98"/>
  <rect class="cls-1" x="1983.55" y="911.34" width="272.84" height="106.29"/>
  <rect class="cls-1" x="1983.55" y="1017.63" width="272.84" height="219.41"/>
  <rect class="cls-1" x="1983.55" y="1237.04" width="272.84" height="225.09"/>
  <line class="cls-1" x1="1983.55" y1="395.78" x2="1983.55" y2="538.01"/>
  <line class="cls-1" x1="2256.39" y1="467.4" x2="2058.71" y2="466.89"/>
  <rect class="cls-1" x="1983.55" y="429.82" width="75.16" height="75.16"/>
</svg>