<?xml version="1.0" encoding="UTF-8"?>
<svg id="_レイヤー_1" data-name="レイヤー 1" xmlns="http://www.w3.org/2000/svg" viewBox="0 0 1350 1065">
  <defs>
    <style>
      .cls-1 {
        fill: none;
        stroke: #e8f0ff;
        stroke-miterlimit: 10;
      }
    </style>
  </defs>
  <path class="cls-1" d="m1139.5,162.5v-33h-50v33h50Z"/>
  <rect class="cls-1" x="1064.5" y="737.5" width="159" height="123"/>
  <rect class="cls-1" x="317.5" y="907.5" width="149" height="137"/>
  <rect class="cls-1" x="93.5" y="907.5" width="76" height="137"/>
  <rect class="cls-1" x="1064.5" y="210.5" width="180" height="192"/>
  <polyline class="cls-1" points="107.5 907.5 93.5 907.5 93.5 842.5"/>
  <rect class="cls-1" x="1163.5" y="24.5" width="49" height="47"/>
  <rect class="cls-1" x="1175.5" y="83.5" width="28" height="40"/>
  <polygon class="cls-1" points="1163.5 127.5 1163.5 71.5 1212.5 71.5 1212.5 127.5 1197.5 127.5 1197.5 123.5 1181.5 123.5 1181.5 127.5 1163.5 127.5"/>
  <polygon class="cls-1" points="1114.5 129.5 1114.5 24.5 1163.5 24.5 1163.5 101.5 1146.5 101.5 1146.5 129.5 1114.5 129.5"/>
  <polygon class="cls-1" points="1064.5 101.5 1064.5 24.5 1114.5 24.5 1114.5 129.5 1081.5 129.5 1081.5 101.5 1064.5 101.5"/>
  <path class="cls-1" d="m132.5,127.5h37v-48.22m601,727.22v-42h-50v42h50Zm519,135v-34h-74v34h74Z"/>
  <rect class="cls-1" x="677.5" y="777.5" width="28" height="26"/>
  <polygon class="cls-1" points="664.5 815.5 664.5 752.5 720.5 752.5 720.5 815.5 699.5 815.5 699.5 803.5 683.5 803.5 683.5 815.5 664.5 815.5"/>
  <rect class="cls-1" x="1089.5" y="129.5" width="50" height="33"/>
  <g>
    <rect class="cls-1" x="720.5" y="764.5" width="50" height="42"/>
    <line class="cls-1" x1="770.5" y1="771.5" x2="720.5" y2="771.5"/>
    <line class="cls-1" x1="770.5" y1="778.5" x2="720.5" y2="778.5"/>
    <line class="cls-1" x1="770.5" y1="785.5" x2="720.5" y2="785.5"/>
    <line class="cls-1" x1="770.5" y1="792.5" x2="720.5" y2="792.5"/>
    <line class="cls-1" x1="770.5" y1="799.5" x2="720.5" y2="799.5"/>
  </g>
  <polyline class="cls-1" points="169.5 79.28 169.5 127.5 132.5 127.5"/>
  <polygon class="cls-1" points="317.5 699.5 317.5 337.5 1064.5 337.5 1064.5 860.5 770.5 860.5 770.5 737.5 915.5 737.5 915.5 377.5 770.5 377.5 770.5 699.5 317.5 699.5"/>
  <path class="cls-1" d="m1244.5,402.5v-192h-180v192h180Zm-21,458v-123h-159v123h159Zm66,81v-34h-74v34h74Zm-208-840v28h8v33h50v-33h7v-28h17v26h18v-4h16v4h15v35h77V24.5h-225v77h17Zm-949,26h37m514,688v-12h16v12h21v-9h50v-42h-50v-12h-56v63h19Zm-514,229v-137h-62v-47h21v-18h-35v202h76Zm297,0v-137h-149v137h149Z"/>
  <rect class="cls-1" x="93.5" y="227.5" width="35" height="615"/>
  <rect class="cls-1" x="770.5" y="377.5" width="145" height="360"/>
  <rect class="cls-1" x="317.5" y="699.5" width="295.5" height="161"/>
  <path class="cls-1" d="m1215.5,941.5v-34h74V162.5h-77v-35h-15v-4h-16v4h-18v-26h-17v28h-7v33h-50v-33h-8v-28h-17v61H169.5v-35m746,917h374v-46.27m-972-90.73h149M1064.5,24.5H93.5v138h14v46h21v652h-21v47h62"/>
  <polygon class="cls-1" points="613 764.5 613 699.5 770.5 699.5 770.5 764.5 720.5 764.5 720.5 752.5 664.5 752.5 664.5 764.5 613 764.5"/>
  <polygon class="cls-1" points="93.5 227.5 93.5 162.5 107.5 162.5 107.5 208.5 128.5 208.5 128.5 227.5 93.5 227.5"/>
  <rect class="cls-1" x="1064.5" y="737.5" width="159" height="123"/>
  <rect class="cls-1" x="1064.5" y="534.5" width="180" height="203"/>
  <rect class="cls-1" x="1064.5" y="402.5" width="180" height="132"/>
  <rect class="cls-1" x="1064.5" y="210.5" width="180" height="192"/>
  <rect class="cls-1" x="915.5" y="210.5" width="149" height="127"/>
  <rect class="cls-1" x="770.5" y="210.5" width="145" height="127"/>
  <rect class="cls-1" x="466.5" y="210.5" width="149" height="127"/>
  <rect class="cls-1" x="317.5" y="210.5" width="149" height="127"/>
  <rect class="cls-1" x="169.5" y="598.5" width="148" height="139"/>
  <rect class="cls-1" x="169.5" y="470.5" width="148" height="128"/>
  <rect class="cls-1" x="169.5" y="210.5" width="148" height="260"/>
  <line class="cls-1" x1="317.5" y1="860.5" x2="169.5" y2="860.5"/>
  <polyline class="cls-1" points="317.5 797.87 186.4 797.87 169.5 786.13 169.5 763.39 200.42 763.39"/>
  <polyline class="cls-1" points="186.4 797.87 186.4 833.12 200.04 833.12"/>
  <line class="cls-1" x1="219.37" y1="860.5" x2="219.37" y2="827.05"/>
  <line class="cls-1" x1="219.37" y1="737.5" x2="219.37" y2="770.21"/>
  <g>
    <rect class="cls-1" x="1212.5" y="50.5" width="77" height="81"/>
    <line class="cls-1" x1="1289.5" y1="57.86" x2="1212.5" y2="57.86"/>
    <line class="cls-1" x1="1289.5" y1="65.23" x2="1212.5" y2="65.23"/>
    <line class="cls-1" x1="1289.5" y1="72.59" x2="1212.5" y2="72.59"/>
    <line class="cls-1" x1="1289.5" y1="79.95" x2="1212.5" y2="79.95"/>
    <line class="cls-1" x1="1289.5" y1="87.32" x2="1212.5" y2="87.32"/>
    <line class="cls-1" x1="1289.5" y1="94.68" x2="1212.5" y2="94.68"/>
    <line class="cls-1" x1="1289.5" y1="102.05" x2="1212.5" y2="102.05"/>
    <line class="cls-1" x1="1289.5" y1="109.41" x2="1212.5" y2="109.41"/>
    <line class="cls-1" x1="1289.5" y1="116.77" x2="1212.5" y2="116.77"/>
    <line class="cls-1" x1="1289.5" y1="124.14" x2="1212.5" y2="124.14"/>
    <line class="cls-1" x1="1251" y1="131.5" x2="1251" y2="50.5"/>
  </g>
  <g>
    <polyline class="cls-1" points="169.5 52.5 93.5 52.5 93.5 127.5 169.5 127.5 169.5 24.5"/>
    <line class="cls-1" x1="169.5" y1="59.32" x2="93.5" y2="59.32"/>
    <line class="cls-1" x1="169.5" y1="66.14" x2="93.5" y2="66.14"/>
    <line class="cls-1" x1="169.5" y1="72.95" x2="93.5" y2="72.95"/>
    <line class="cls-1" x1="169.5" y1="79.77" x2="93.5" y2="79.77"/>
    <line class="cls-1" x1="169.5" y1="86.59" x2="93.5" y2="86.59"/>
    <line class="cls-1" x1="169.5" y1="93.41" x2="93.5" y2="93.41"/>
    <line class="cls-1" x1="169.5" y1="107.05" x2="93.5" y2="107.05"/>
    <line class="cls-1" x1="169.5" y1="100.23" x2="93.5" y2="100.23"/>
    <line class="cls-1" x1="169.5" y1="113.86" x2="93.5" y2="113.86"/>
    <line class="cls-1" x1="169.5" y1="120.68" x2="93.5" y2="120.68"/>
    <line class="cls-1" x1="131.5" y1="127.5" x2="131.5" y2="52.5"/>
  </g>
  <g>
    <rect class="cls-1" x="1252.5" y="991.14" width="37" height="7.09"/>
    <rect class="cls-1" x="1252.5" y="976.95" width="37" height="7.1"/>
    <rect class="cls-1" x="1252.5" y="969.86" width="37" height="7.09"/>
    <rect class="cls-1" x="1252.5" y="962.77" width="37" height="7.09"/>
    <rect class="cls-1" x="1252.5" y="955.68" width="37" height="7.09"/>
    <rect class="cls-1" x="1252.5" y="948.59" width="37" height="7.09"/>
    <rect class="cls-1" x="1215.5" y="948.59" width="37" height="7.09"/>
    <rect class="cls-1" x="1252.5" y="941.5" width="37" height="7.09"/>
    <rect class="cls-1" x="1215.5" y="941.5" width="37" height="7.09"/>
    <polygon class="cls-1" points="1215.5 1019.5 1215.5 955.68 1252.5 955.68 1252.5 998.23 1289.5 998.23 1289.5 1019.5 1215.5 1019.5"/>
    <line class="cls-1" x1="1289.5" y1="1012.41" x2="1215.5" y2="1012.41"/>
    <line class="cls-1" x1="1289.5" y1="1005.32" x2="1215.5" y2="1005.32"/>
    <line class="cls-1" x1="1215.5" y1="998.23" x2="1252.5" y2="998.23"/>
    <line class="cls-1" x1="1215.5" y1="991.14" x2="1252.5" y2="991.14"/>
    <line class="cls-1" x1="1215.5" y1="984.05" x2="1252.5" y2="984.05"/>
    <line class="cls-1" x1="1215.5" y1="976.95" x2="1252.5" y2="976.95"/>
    <line class="cls-1" x1="1215.5" y1="969.86" x2="1252.5" y2="969.86"/>
    <line class="cls-1" x1="1215.5" y1="962.77" x2="1252.5" y2="962.77"/>
    <polyline class="cls-1" points="1252.5 1019.5 1252.5 1012.41 1252.5 1005.32 1252.5 998.23"/>
    <rect class="cls-1" x="1252.5" y="984.05" width="37" height="7.09"/>
  </g>
  <rect class="cls-1" x="466.5" y="907.5" width="146.5" height="137"/>
  <rect class="cls-1" x="317.5" y="907.5" width="149.5" height="137"/>
  <rect class="cls-1" x="169.5" y="907.5" width="148" height="137"/>
  <rect class="cls-1" x="691" y="907.5" width="79.5" height="137"/>
  <rect class="cls-1" x="770.5" y="907.5" width="145" height="137"/>
  <rect class="cls-1" x="915.5" y="907.5" width="149" height="137"/>
  <rect class="cls-1" x="1064.5" y="907.5" width="151" height="137" transform="translate(2280 1952) rotate(180)"/>
  <rect class="cls-1" x="613" y="907.5" width="78" height="137"/>
  <g>
    <rect class="cls-1" x="720.5" y="764.5" width="50" height="42"/>
    <line class="cls-1" x1="770.5" y1="771.5" x2="720.5" y2="771.5"/>
    <line class="cls-1" x1="770.5" y1="778.5" x2="720.5" y2="778.5"/>
    <line class="cls-1" x1="770.5" y1="785.5" x2="720.5" y2="785.5"/>
    <line class="cls-1" x1="770.5" y1="792.5" x2="720.5" y2="792.5"/>
    <line class="cls-1" x1="770.5" y1="799.5" x2="720.5" y2="799.5"/>
  </g>
  <g>
    <rect class="cls-1" x="613" y="764.5" width="51.5" height="42"/>
    <line class="cls-1" x1="664.5" y1="771.5" x2="613" y2="771.5"/>
    <line class="cls-1" x1="664.5" y1="778.5" x2="613" y2="778.5"/>
    <line class="cls-1" x1="664.5" y1="785.5" x2="613" y2="785.5"/>
    <line class="cls-1" x1="664.5" y1="792.5" x2="613" y2="792.5"/>
    <line class="cls-1" x1="664.5" y1="799.5" x2="613" y2="799.5"/>
  </g>
  <g>
    <rect class="cls-1" x="671" y="699.5" width="42" height="53"/>
    <line class="cls-1" x1="678" y1="752.5" x2="678" y2="699.5"/>
    <line class="cls-1" x1="685" y1="752.5" x2="685" y2="699.5"/>
    <line class="cls-1" x1="692" y1="752.5" x2="692" y2="699.5"/>
    <line class="cls-1" x1="699" y1="752.5" x2="699" y2="699.5"/>
    <line class="cls-1" x1="706" y1="752.5" x2="706" y2="699.5"/>
  </g>
  <rect class="cls-1" x="989.5" y="24.5" width="75" height="138" transform="translate(2054 187) rotate(180)"/>
  <rect class="cls-1" x="692.5" y="24.5" width="297" height="138" transform="translate(1682 187) rotate(180)"/>
  <rect class="cls-1" x="541.5" y="24.5" width="151" height="138" transform="translate(1234 187) rotate(180)"/>
  <rect class="cls-1" x="243.5" y="24.5" width="298" height="138" transform="translate(785 187) rotate(180)"/>
</svg>