<?xml version="1.0" encoding="UTF-8"?>
<svg id="_レイヤー_1" data-name="レイヤー 1" xmlns="http://www.w3.org/2000/svg" viewBox="0 0 1197 1021">
  <defs>
    <style>
      .cls-1 {
        fill: none;
        stroke: #e8f0ff;
        stroke-miterlimit: 10;
        stroke-width: 2px;
      }
    </style>
  </defs>
  <path class="cls-1" d="m1046.5,138.5v-33h-50v33h50Z"/>
  <rect class="cls-1" x="224.5" y="883.5" width="149" height="137"/>
  <rect class="cls-1" x=".5" y="883.5" width="76" height="137"/>
  <polyline class="cls-1" points="14.5 883.5 .5 883.5 .5 818.5"/>
  <rect class="cls-1" x="1070.5" y=".5" width="49" height="47"/>
  <rect class="cls-1" x="1082.5" y="59.5" width="28" height="40"/>
  <polygon class="cls-1" points="1070.5 103.5 1070.5 47.5 1119.5 47.5 1119.5 103.5 1104.5 103.5 1104.5 99.5 1088.5 99.5 1088.5 103.5 1070.5 103.5"/>
  <polygon class="cls-1" points="1021.5 105.5 1021.5 .5 1070.5 .5 1070.5 77.5 1053.5 77.5 1053.5 105.5 1021.5 105.5"/>
  <polygon class="cls-1" points="971.5 77.5 971.5 .5 1021.5 .5 1021.5 105.5 988.5 105.5 988.5 77.5 971.5 77.5"/>
  <path class="cls-1" d="m39.5,103.5h37v-48.22m601,727.22v-42h-50v42h50Zm519,135v-34h-74v34h74Z"/>
  <rect class="cls-1" x="584.5" y="753.5" width="28" height="26"/>
  <polygon class="cls-1" points="571.5 791.5 571.5 728.5 627.5 728.5 627.5 791.5 606.5 791.5 606.5 779.5 590.5 779.5 590.5 791.5 571.5 791.5"/>
  <rect class="cls-1" x="996.5" y="105.5" width="50" height="33"/>
  <g>
    <rect class="cls-1" x="627.5" y="740.5" width="50" height="42"/>
    <line class="cls-1" x1="677.5" y1="747.5" x2="627.5" y2="747.5"/>
    <line class="cls-1" x1="677.5" y1="754.5" x2="627.5" y2="754.5"/>
    <line class="cls-1" x1="677.5" y1="761.5" x2="627.5" y2="761.5"/>
    <line class="cls-1" x1="677.5" y1="768.5" x2="627.5" y2="768.5"/>
    <line class="cls-1" x1="677.5" y1="775.5" x2="627.5" y2="775.5"/>
  </g>
  <rect class="cls-1" x=".5" y="203.5" width="35" height="615"/>
  <path class="cls-1" d="m1122.5,917.5v-34h74V138.5h-77v-35h-15v-4h-16v4h-18v-26h-17v28h-7v33h-50v-33h-8v-28h-17v61H76.5v-35m746,917h374v-46.27m-972-90.73h149M971.5.5H.5v138h14v46h21v652H14.5v47h62"/>
  <polygon class="cls-1" points="520 740.5 520 675.5 677.5 675.5 677.5 740.5 627.5 740.5 627.5 728.5 571.5 728.5 571.5 740.5 520 740.5"/>
  <polygon class="cls-1" points=".5 203.5 .5 138.5 14.5 138.5 14.5 184.5 35.5 184.5 35.5 203.5 .5 203.5"/>
  <rect class="cls-1" x="971.5" y="611.68" width="180" height="224.82"/>
  <rect class="cls-1" x="971.5" y="479.05" width="180" height="53.05"/>
  <rect class="cls-1" x="971.5" y="250" width="180" height="229.05"/>
  <rect class="cls-1" x="76.5" y="574.5" width="148" height="139"/>
  <rect class="cls-1" x="76.5" y="446.5" width="148" height="128"/>
  <rect class="cls-1" x="76.5" y="186.5" width="148" height="260"/>
  <line class="cls-1" x1="522.5" y1="313.5" x2="677.5" y2="313.5"/>
  <polyline class="cls-1" points="224.5 313.5 224.5 446.5 224.5 574.5 224.5 713.5 224.5 773.87 224.5 836.5"/>
  <polyline class="cls-1" points="971.5 313.5 971.5 479.05 971.5 532.11 971.5 611.68 971.5 836.5 677.5 836.5 677.5 782.5 677.5 775.5 677.5 768.5 677.5 761.5 677.5 754.5 677.5 747.5 677.5 740.5 677.5 675.5 620 675.5 613 675.5 606 675.5 599 675.5 592 675.5 585 675.5 578 675.5 520 675.5 520 740.5 520 747.5 520 754.5 520 761.5 520 768.5 520 775.5 520 782.5 520 836.5 224.5 836.5 126.37 836.5 76.5 836.5"/>
  <g>
    <polyline class="cls-1" points="224.5 773.87 93.4 773.87 76.5 762.13 76.5 739.39 107.42 739.39"/>
    <polyline class="cls-1" points="93.4 773.87 93.4 809.12 107.04 809.12"/>
    <line class="cls-1" x1="126.37" y1="836.5" x2="126.37" y2="803.05"/>
    <line class="cls-1" x1="126.37" y1="713.5" x2="126.37" y2="746.21"/>
  </g>
  <g>
    <rect class="cls-1" x="1119.5" y="26.5" width="77" height="81"/>
    <line class="cls-1" x1="1196.5" y1="33.86" x2="1119.5" y2="33.86"/>
    <line class="cls-1" x1="1196.5" y1="41.23" x2="1119.5" y2="41.23"/>
    <line class="cls-1" x1="1196.5" y1="48.59" x2="1119.5" y2="48.59"/>
    <line class="cls-1" x1="1196.5" y1="55.95" x2="1119.5" y2="55.95"/>
    <line class="cls-1" x1="1196.5" y1="63.32" x2="1119.5" y2="63.32"/>
    <line class="cls-1" x1="1196.5" y1="70.68" x2="1119.5" y2="70.68"/>
    <line class="cls-1" x1="1196.5" y1="78.05" x2="1119.5" y2="78.05"/>
    <line class="cls-1" x1="1196.5" y1="85.41" x2="1119.5" y2="85.41"/>
    <line class="cls-1" x1="1196.5" y1="92.77" x2="1119.5" y2="92.77"/>
    <line class="cls-1" x1="1196.5" y1="100.14" x2="1119.5" y2="100.14"/>
    <line class="cls-1" x1="1158" y1="107.5" x2="1158" y2="26.5"/>
  </g>
  <g>
    <rect class="cls-1" x=".5" y="28.5" width="76" height="75"/>
    <line class="cls-1" x1="76.5" y1="35.32" x2=".5" y2="35.32"/>
    <line class="cls-1" x1="76.5" y1="42.14" x2=".5" y2="42.14"/>
    <line class="cls-1" x1="76.5" y1="48.95" x2=".5" y2="48.95"/>
    <line class="cls-1" x1="76.5" y1="55.77" x2=".5" y2="55.77"/>
    <line class="cls-1" x1="76.5" y1="62.59" x2=".5" y2="62.59"/>
    <line class="cls-1" x1="76.5" y1="69.41" x2=".5" y2="69.41"/>
    <line class="cls-1" x1="76.5" y1="83.05" x2=".5" y2="83.05"/>
    <line class="cls-1" x1="76.5" y1="76.23" x2=".5" y2="76.23"/>
    <line class="cls-1" x1="76.5" y1="89.86" x2=".5" y2="89.86"/>
    <line class="cls-1" x1="76.5" y1="96.68" x2=".5" y2="96.68"/>
    <line class="cls-1" x1="38.5" y1="103.5" x2="38.5" y2="28.5"/>
  </g>
  <g>
    <rect class="cls-1" x="1159.5" y="967.14" width="37" height="7.09"/>
    <rect class="cls-1" x="1159.5" y="952.95" width="37" height="7.1"/>
    <rect class="cls-1" x="1159.5" y="945.86" width="37" height="7.09"/>
    <rect class="cls-1" x="1159.5" y="938.77" width="37" height="7.09"/>
    <rect class="cls-1" x="1159.5" y="931.68" width="37" height="7.09"/>
    <rect class="cls-1" x="1159.5" y="924.59" width="37" height="7.09"/>
    <rect class="cls-1" x="1122.5" y="924.59" width="37" height="7.09"/>
    <rect class="cls-1" x="1159.5" y="917.5" width="37" height="7.09"/>
    <rect class="cls-1" x="1122.5" y="917.5" width="37" height="7.09"/>
    <polygon class="cls-1" points="1122.5 995.5 1122.5 931.68 1159.5 931.68 1159.5 974.23 1196.5 974.23 1196.5 995.5 1122.5 995.5"/>
    <line class="cls-1" x1="1196.5" y1="988.41" x2="1122.5" y2="988.41"/>
    <line class="cls-1" x1="1196.5" y1="981.32" x2="1122.5" y2="981.32"/>
    <line class="cls-1" x1="1122.5" y1="974.23" x2="1159.5" y2="974.23"/>
    <line class="cls-1" x1="1122.5" y1="967.14" x2="1159.5" y2="967.14"/>
    <line class="cls-1" x1="1122.5" y1="960.05" x2="1159.5" y2="960.05"/>
    <line class="cls-1" x1="1122.5" y1="952.95" x2="1159.5" y2="952.95"/>
    <line class="cls-1" x1="1122.5" y1="945.86" x2="1159.5" y2="945.86"/>
    <line class="cls-1" x1="1122.5" y1="938.77" x2="1159.5" y2="938.77"/>
    <polyline class="cls-1" points="1159.5 995.5 1159.5 988.41 1159.5 981.32 1159.5 974.23"/>
    <rect class="cls-1" x="1159.5" y="960.05" width="37" height="7.09"/>
  </g>
  <rect class="cls-1" x="373.5" y="883.5" width="146.5" height="137"/>
  <rect class="cls-1" x="224.5" y="883.5" width="149.5" height="137"/>
  <rect class="cls-1" x="76.5" y="883.5" width="148" height="137"/>
  <rect class="cls-1" x="598" y="883.5" width="79.5" height="137"/>
  <rect class="cls-1" x="677.5" y="883.5" width="145" height="137"/>
  <rect class="cls-1" x="822.5" y="883.5" width="149" height="137"/>
  <rect class="cls-1" x="971.5" y="883.5" width="151" height="137" transform="translate(2094 1904) rotate(180)"/>
  <rect class="cls-1" x="520" y="883.5" width="78" height="137"/>
  <g>
    <rect class="cls-1" x="627.5" y="740.5" width="50" height="42"/>
    <line class="cls-1" x1="677.5" y1="747.5" x2="627.5" y2="747.5"/>
    <line class="cls-1" x1="677.5" y1="754.5" x2="627.5" y2="754.5"/>
    <line class="cls-1" x1="677.5" y1="761.5" x2="627.5" y2="761.5"/>
    <line class="cls-1" x1="677.5" y1="768.5" x2="627.5" y2="768.5"/>
    <line class="cls-1" x1="677.5" y1="775.5" x2="627.5" y2="775.5"/>
  </g>
  <g>
    <rect class="cls-1" x="520" y="740.5" width="51.5" height="42"/>
    <line class="cls-1" x1="571.5" y1="747.5" x2="520" y2="747.5"/>
    <line class="cls-1" x1="571.5" y1="754.5" x2="520" y2="754.5"/>
    <line class="cls-1" x1="571.5" y1="761.5" x2="520" y2="761.5"/>
    <line class="cls-1" x1="571.5" y1="768.5" x2="520" y2="768.5"/>
    <line class="cls-1" x1="571.5" y1="775.5" x2="520" y2="775.5"/>
  </g>
  <g>
    <rect class="cls-1" x="578" y="675.5" width="42" height="53"/>
    <line class="cls-1" x1="585" y1="728.5" x2="585" y2="675.5"/>
    <line class="cls-1" x1="592" y1="728.5" x2="592" y2="675.5"/>
    <line class="cls-1" x1="599" y1="728.5" x2="599" y2="675.5"/>
    <line class="cls-1" x1="606" y1="728.5" x2="606" y2="675.5"/>
    <line class="cls-1" x1="613" y1="728.5" x2="613" y2="675.5"/>
  </g>
  <rect class="cls-1" x="896.5" y=".5" width="75" height="138" transform="translate(1868 139) rotate(180)"/>
  <rect class="cls-1" x="599.5" y=".5" width="297" height="138" transform="translate(1496 139) rotate(180)"/>
  <rect class="cls-1" x="448.5" y=".5" width="151" height="138" transform="translate(1048 139) rotate(180)"/>
  <rect class="cls-1" x="150.5" y=".5" width="298" height="138" transform="translate(599 139) rotate(180)"/>
  <rect class="cls-1" x="971.5" y="532.11" width="180" height="79.58" transform="translate(2123 1143.79) rotate(180)"/>
  <rect class="cls-1" x="677.5" y="186.5" width="294" height="127"/>
  <path class="cls-1" d="m1196.5,1020.5V.5H.5v1020h1196ZM522.5,186.5v127H224.5v-127h298Zm155,0h294v127h-294v-127Z"/>
  <rect class="cls-1" x="224.5" y="186.5" width="298" height="127"/>
  <rect class="cls-1" x="76.5" y=".5" width="74" height="138" transform="translate(227 139) rotate(180)"/>
</svg>